
        <svg xmlns="http://www.w3.org/2000/svg" xmlns:xlink="http://www.w3.org/1999/xlink" version="1.1" width="3171.4285714285716" height="2042.9504202939877" viewBox="0 0 3171.4285714285716 2042.9504202939877">
			
			<g transform="scale(8.571428571428571) translate(10, 10)">
				<defs id="SvgjsDefs3321"/><g id="SvgjsG3322" featureKey="pxMwYC-0" transform="matrix(1.869349828273628,0,0,1.869349828273628,81.30882437579227,-30.399753921217375)" fill="#000"><g xmlns="http://www.w3.org/2000/svg"><path d="M36.5761719,57.1474609c0.7246094,0.5703125,1.6435547,0.8842773,2.5878906,0.8842773   c1.6108398,0,3.1020508-0.9404297,3.7954102-2.387207c0.2802734-0.5771484,0.4228516-1.1933594,0.4228516-1.8310547   c0-1.8427734-1.175293-3.4580078-2.9091797-4.0146484c-0.4243164-0.1416016-0.8647461-0.2133789-1.309082-0.2133789   c-1.6987305,0-3.2270508,1.0136719-3.9008789,2.5976563c-0.2167969,0.5263672-0.3271484,1.074707-0.3271484,1.6303711   C34.9360352,55.1196289,35.5561523,56.3710938,36.5761719,57.1474609z M38.0302734,53.3422852   c0.1953125-0.4594727,0.640625-0.7568359,1.1337891-0.7568359c0.1210938,0,0.2426758,0.0200195,0.3764648,0.0644531   c0.4956055,0.1591797,0.8417969,0.6376953,0.8417969,1.1635742c0,0.1791992-0.0405273,0.3540039-0.125,0.5268555   c-0.3203125,0.6679688-1.2617188,0.8916016-1.8447266,0.4350586c-0.2983398-0.2270508-0.4765625-0.5869141-0.4765625-0.9619141   C37.9360352,53.6479492,37.9677734,53.4936523,38.0302734,53.3422852z"/><path d="M18.9331055,49.9223633c1.3776245,0,2.6040649-0.6130371,3.4571533-1.5670776l2.814209,1.1860352   c-0.0548706,0.1797485-0.1151123,0.3594971-0.1624756,0.5392456h-1.8276367c-0.7441406,0-1.3759766,0.5458984-1.4838867,1.2822266   c-0.1137695,0.7734375-0.1713867,1.5976563-0.1713867,2.4506836c0,0.8583984,0.0561523,1.6567383,0.1713867,2.440918   c0.1079102,0.7363281,0.7397461,1.2822266,1.4838867,1.2822266h1.8242188   c0.328125,1.2617188,0.8334961,2.4868164,1.4956055,3.6245117l-1.2861328,1.2924805   c-0.5253906,0.5273438-0.5839844,1.3603516-0.1381836,1.956543c0.6500244,0.8688965,1.3800659,1.6604004,2.1710815,2.3766479   l-3.3560791,4.3547363c-0.8322754-0.3798828-1.7536621-0.5971069-2.7266235-0.5971069   c-3.637207,0-6.5966797,2.9594727-6.5966797,6.5966797s2.9594727,6.5966797,6.5966797,6.5966797   s6.5966797-2.9594727,6.5966797-6.5966797c0-1.5813599-0.5604248-3.0338745-1.4917603-4.1715088l3.8483276-4.9935303   c0.1333008-0.0692749,0.2637939-0.147583,0.3748779-0.2587891l1.2880859-1.2880859   c1.1333008,0.6655273,2.3432617,1.1665039,3.6166992,1.4975586v1.8266602c0,0.7441406,0.5458984,1.3759766,1.2822266,1.4838867   c0.8173828,0.1201172,1.6420898,0.1811523,2.4506836,0.1811523c0.8022461,0,1.6235352-0.0610352,2.440918-0.1811523   c0.7363281-0.1079102,1.2822266-0.7397461,1.2822266-1.4838867v-1.8256836   c1.28125-0.331543,2.4912109-0.8320313,3.6186523-1.4960938l1.2856445,1.2856445   c0.5263672,0.527832,1.3608398,0.5874023,1.9589844,0.140625c1.3139648-0.9824219,2.4790039-2.140625,3.4628906-3.4414063   c0.4516602-0.597168,0.394043-1.4360352-0.1357422-1.965332l-0.5349731-0.5349731l12.8590088,6.1959839   c-0.3093262,0.9835815-0.477356,2.0290527-0.477356,3.1134033c0,5.7338867,4.6650391,10.3984375,10.3989258,10.3984375   s10.3984375-4.6645508,10.3984375-10.3984375s-4.6645508-10.3989258-10.3984375-10.3989258   c-3.581665,0-6.7460327,1.8204346-8.6171265,4.5844116l-13.809082-6.6537476   c0.1436157-0.4003906,0.274292-0.8063354,0.3817749-1.2207031h1.8251953c0.7441406,0,1.3759766-0.5458984,1.4838867-1.2822266   c0.1152344-0.7841797,0.1713867-1.5825195,0.1713867-2.440918c0-0.8530273-0.0576172-1.6772461-0.1713867-2.4506836   c-0.1079102-0.7363281-0.7397461-1.2822266-1.4838867-1.2822266h-1.8266602   c-0.3310547-1.2729492-0.8320313-2.4829102-1.4975586-3.6162109l1.2880859-1.2880859   c0.5258789-0.5253906,0.5874023-1.3569336,0.144043-1.9541016c-0.9667969-1.3037109-2.1259766-2.4707031-3.4458008-3.4682617   c-0.597168-0.4501953-1.4365234-0.3930664-1.9648438,0.1362305l-1.2998047,1.2998047   c-0.4769897-0.2789917-0.9663086-0.5241699-1.4628296-0.741394l2.7208252-8.4537354   c0.2837524,0.0310669,0.571228,0.0496216,0.8630981,0.0496216c4.3510742,0,7.890625-3.5400391,7.890625-7.8911133   s-3.5395508-7.8911133-7.890625-7.8911133s-7.8911133,3.5400391-7.8911133,7.8911133   c0,3.0032959,1.6873779,5.6187744,4.163147,6.9518433l-2.0681152,6.4257202   c-0.1370239-0.5891724-0.600647-1.0599976-1.2214966-1.151001c-1.5522461-0.2280273-3.3520508-0.2270508-4.8916016,0   c-0.7363281,0.1079102-1.2822266,0.7397461-1.2822266,1.4838867v1.8266602   c-1.2734375,0.3310547-2.4833984,0.8320313-3.6162109,1.4975586l-1.2978516-1.2978516   c-0.5292969-0.5292969-1.3681641-0.5864258-1.9648438-0.1362305c-1.3198242,0.9975586-2.4790039,2.1645508-3.4458008,3.4682617   c-0.4433594,0.597168-0.3818359,1.4287109,0.144043,1.9541016l1.2880859,1.2880859   c-0.0584106,0.1001587-0.102417,0.2144165-0.1587524,0.3166504l-2.8240967-1.1901855   c0.0076294-0.1087646,0.0326538-0.2125244,0.0326538-0.3232422c0-2.5668945-2.0883789-4.6552734-4.6552734-4.6552734   s-4.6547852,2.0883789-4.6547852,4.6552734S16.3662109,49.9223633,18.9331055,49.9223633z M27.7329102,51.824707   c0.1381836-0.8369141,0.387207-1.6918945,0.7348633-2.5288086c0.3339844-0.7832031,0.7402344-1.5102539,1.2070313-2.1601563   c0.4287109-0.5966797,0.3618164-1.4160156-0.1577148-1.9355469l-1.1875-1.1875   c0.3242188-0.3618164,0.6679688-0.7075195,1.0307617-1.0366211l1.1904297,1.1904297   c0.5175781,0.5185547,1.3344727,0.5854492,1.9311523,0.1611328c1.4082031-1.003418,2.9887695-1.6582031,4.6982422-1.9462891   c0.722168-0.121582,1.2509766-0.746582,1.2509766-1.4790039v-1.6767578c0.4775391-0.0219727,0.9785156-0.0219727,1.4560547,0   v1.6767578c0,0.7285156,0.5239258,1.3520508,1.2416992,1.4775391c0.5664063,0.0991211,1.0927734,0.2304688,1.5991211,0.4008789   c1.0961914,0.3413086,2.1430664,0.8623047,3.1113281,1.5488281c0.5966797,0.4223633,1.4116211,0.3544922,1.9282227-0.1630859   l1.1904297-1.1904297c0.362793,0.3291016,0.706543,0.6748047,1.0307617,1.0366211l-1.1875,1.1875   c-0.5180664,0.5175781-0.5864258,1.3339844-0.1611328,1.9306641c1.0039063,1.4091797,1.6586914,2.9902344,1.9462891,4.6987305   c0.121582,0.722168,0.746582,1.2509766,1.4790039,1.2509766h1.6767578   c0.0112305,0.2402344,0.0170898,0.4848633,0.0170898,0.7329102c0,0.2470703-0.0053711,0.487793-0.0166016,0.7231445h-1.6772461   c-0.7333984,0-1.359375,0.5302734-1.4794922,1.2539063c-0.1782227,1.0693359-0.503418,2.0942383-0.9750977,3.0634766   c-0.2646484,0.5629883-0.5805664,1.1020508-0.965332,1.6479492c-0.4204102,0.5966797-0.3505859,1.4086914,0.1655273,1.9248047   l1.1796875,1.1796875c-0.3276367,0.3603516-0.6738281,0.7041016-1.0375977,1.0297852l-1.1855469-1.1855469   c-0.519043-0.5200195-1.3393555-0.5864258-1.9360352-0.1572266c-1.3886719,0.9980469-2.9677734,1.6518555-4.6933594,1.9423828   c-0.722168,0.121582-1.2509766,0.746582-1.2509766,1.4790039v1.6835938c-0.4892578,0.0268555-0.96875,0.0258789-1.4560547,0   v-1.6835938c0-0.7324219-0.5288086-1.3574219-1.2509766-1.4790039c-1.7094727-0.2880859-3.2900391-0.9428711-4.6982422-1.9462891   c-0.5966797-0.4248047-1.4135742-0.3579102-1.9311523,0.1611328l-1.1860352,1.1855469   c-0.3613281-0.3217773-0.7060547-0.6650391-1.0336914-1.0273438l1.1787109-1.1845703   c0.5141602-0.5166016,0.5830078-1.328125,0.1621094-1.9233398c-0.9956055-1.409668-1.6660156-3.0371094-1.9384766-4.7060547   c-0.1186523-0.7255859-0.7456055-1.2583008-1.4804688-1.2583008h-1.6772461   c-0.0112305-0.2353516-0.0166016-0.4760742-0.0166016-0.7231445c0-0.2480469,0.0058594-0.4926758,0.0170898-0.7329102h1.6767578   C26.9868164,53.0805664,27.6132813,52.5493164,27.7329102,51.824707z"/></g></g><g id="SvgjsG3323" featureKey="Vx5QiU-0" transform="matrix(3.4206413911387767,0,0,3.4206413911387767,0.205236656648736,129.37568401344956)" fill="#000"><path d="M7.96 4.92 l8.02 15.08 l-3.46 0 l-1.16 -2.24 l-6.82 0 l-1.12 2.24 l-3.48 0 z M9.84 15.059999999999999 l-1.88 -3.82 l-1.86 3.82 l3.74 0 z M17.46 15.54 l0 -6.5 l3.02 0 l0 6.5 q0 1.18 0.59 1.69 t1.55 0.51 q0.84 0 1.5 -0.65 t0.6 -2.23 l0 -5.82 l3 0 l0 10.96 l-3 0 l0 -0.94 q-0.54 0.56 -1.31 0.87 t-1.63 0.31 q-4.32 0 -4.32 -4.7 z M34.34 16.08 q0 0.7 0.24 1.17 t1.12 0.47 q0.4 0 0.76 -0.04 l0 2.52 q-0.72 0.08 -1.34 0.08 q-1.28 0 -2.07 -0.21 t-1.23 -0.81 t-0.44 -1.72 l0 -6.1 l-1.34 0 l0 -2.62 l1.34 0 l0 -2.94 l2.96 0 l0 2.94 l2.2 0 l0 2.62 l-2.2 0 l0 4.64 z M41.29 19.49 q-1.37 -0.77 -2.17 -2.09 t-0.8 -2.88 q0 -1.54 0.8 -2.86 t2.17 -2.09 t2.99 -0.77 t3 0.77 t2.19 2.09 t0.81 2.86 q0 1.56 -0.81 2.88 t-2.19 2.09 t-3 0.77 t-2.99 -0.77 z M42.76 11.83 q-0.7 0.41 -1.1 1.12 t-0.4 1.57 q0 0.9 0.39 1.61 t1.08 1.12 t1.55 0.41 q0.84 0 1.53 -0.41 t1.09 -1.13 t0.4 -1.6 q0 -0.86 -0.4 -1.57 t-1.09 -1.12 t-1.53 -0.41 q-0.82 0 -1.52 0.41 z M63.99 19.18 q-1.85 1.1 -4.03 1.1 q-2.14 0 -3.95 -1.02 t-2.87 -2.76 t-1.06 -3.8 q0 -2.04 1.06 -3.78 t2.87 -2.76 t3.95 -1.02 q2.16 0 4.02 1.09 t2.92 2.91 l-2.94 1.14 q-0.7 -1 -1.77 -1.64 t-2.23 -0.64 q-1.28 0 -2.36 0.65 t-1.71 1.73 t-0.63 2.32 t0.63 2.33 t1.71 1.74 t2.36 0.65 q1.16 0 2.23 -0.65 t1.77 -1.67 l2.94 1.14 q-1.06 1.84 -2.91 2.94 z M78.15 10.02 q1.03 1.22 1.03 3.48 l0 6.5 l-3.04 0 l0 -6.5 q0 -1.18 -0.59 -1.7 t-1.55 -0.52 q-0.82 0 -1.48 0.65 t-0.62 2.25 l0 5.82 l-2.98 0 l0 -15.14 l2.98 0 l0 5.12 q0.54 -0.54 1.36 -0.86 t1.58 -0.32 q2.28 0 3.31 1.22 z M90.44000000000001 18.9 q-0.38 0.52 -1.31 0.93 t-2.03 0.41 q-1.7 0 -2.95 -0.76 t-1.91 -2.07 t-0.66 -2.91 t0.66 -2.91 t1.91 -2.07 t2.95 -0.76 q1.14 0 2.01 0.39 t1.33 0.99 l0 -1.14 l2.96 0 l0 11 l-2.96 0 l0 -1.1 z M89.74000000000001 12.25 q-0.82 -0.87 -2.2 -0.87 q-1.4 0 -2.21 0.87 t-0.81 2.25 q0 1.34 0.83 2.22 t2.19 0.88 q1.4 0 2.21 -0.83 t0.81 -2.27 q0 -1.38 -0.82 -2.25 z M100.06000000000002 16.08 q0 0.7 0.24 1.17 t1.12 0.47 q0.4 0 0.76 -0.04 l0 2.52 q-0.72 0.08 -1.34 0.08 q-1.28 0 -2.07 -0.21 t-1.23 -0.81 t-0.44 -1.72 l0 -6.1 l-1.34 0 l0 -2.62 l1.34 0 l0 -2.94 l2.96 0 l0 2.94 l2.2 0 l0 2.62 l-2.2 0 l0 4.64 z"/></g><g id="SvgjsG3324" featureKey="aAUSXE-0" transform="matrix(0.5629044826854894,0,0,0.5629044826854894,27.662257632485236,206.91725446087742)" fill="#000"><path d="M12.58 6.779999999999999 l-4.42 0 l0 13.22 l-3.14 0 l0 -13.22 l-4.42 0 l0 -2.76 l11.98 0 l0 2.76 z M38.660000000000004 20 l-3.1 0 l0 -7.08 l-6.3 0 l0 7.08 l-3.1 0 l0 -15.98 l3.1 0 l0 6.34 l6.3 0 l0 -6.34 l3.1 0 l0 15.98 z M63.8 20 l-10.56 0 l0 -15.98 l10.56 0 l0 2.56 l-7.52 0 l0 3.82 l7.42 0 l0 2.5 l-7.42 0 l0 4.4 l7.52 0 l0 2.7 z M104.48 14.64 q0 1.62 -0.57 2.7 t-1.39 1.74 t-1.75 0.94 t-1.67 0.28 q-1.36 0 -2.59 -0.64 t-2.05 -1.7 l2.04 -2.02 q0.4 0.64 1.04 1 t1.32 0.36 q0.46 0 0.9 -0.17 t0.79 -0.49 t0.56 -0.78 t0.21 -1.06 l0 -10.78 l3.16 0 l0 10.62 z M121.96000000000001 20 l-3.1 0 l0 -15.98 l3.1 0 l0 15.98 z M147.52 6.779999999999999 l-4.42 0 l0 13.22 l-3.14 0 l0 -13.22 l-4.42 0 l0 -2.76 l11.98 0 l0 2.76 z M175.12 4 l0 8.68 q0 1.6 -0.48 2.98 t-1.39 2.41 t-2.22 1.62 t-2.99 0.59 q-1.64 0 -2.96 -0.58 t-2.25 -1.59 t-1.43 -2.38 t-0.5 -2.95 l0 -8.78 l3.1 0 l0 8.8 q0 0.92 0.26 1.73 t0.76 1.41 t1.25 0.95 t1.71 0.35 q1.02 0 1.77 -0.33 t1.24 -0.92 t0.74 -1.39 t0.25 -1.76 l0 -8.84 l3.14 0 z M210.27999999999997 20 l-3.1 0 l0 -15.98 l3.1 0 l0 15.98 z M238.16 20 l-3.04 0 l-7.22 -11.22 l0 11.22 l-3.04 0 l0 -16 l3.48 0 l6.78 10.44 l0 -10.44 l3.04 0 l0 16 z M286.76 20 l-3.4 0 l-1.48 -3.2 l-7.76 0 l-1.5 3.2 l-3.4 0 l7.56 -16 l2.42 0 z M280.65999999999997 14.219999999999999 l-2.66 -5.76 l-2.7 5.76 l5.36 0 z M312.82 4 l0 8.68 q0 1.6 -0.48 2.98 t-1.39 2.41 t-2.22 1.62 t-2.99 0.59 q-1.64 0 -2.96 -0.58 t-2.25 -1.59 t-1.43 -2.38 t-0.5 -2.95 l0 -8.78 l3.1 0 l0 8.8 q0 0.92 0.26 1.73 t0.76 1.41 t1.25 0.95 t1.71 0.35 q1.02 0 1.77 -0.33 t1.24 -0.92 t0.74 -1.39 t0.25 -1.76 l0 -8.84 l3.14 0 z M337.97999999999996 6.779999999999999 l-4.42 0 l0 13.22 l-3.14 0 l0 -13.22 l-4.42 0 l0 -2.76 l11.98 0 l0 2.76 z M367.06 12 q0 1.72 -0.67 3.24 t-1.83 2.64 t-2.7 1.77 t-3.28 0.65 t-3.29 -0.65 t-2.71 -1.77 t-1.83 -2.63 t-0.67 -3.25 t0.67 -3.26 t1.83 -2.64 t2.71 -1.76 t3.29 -0.64 t3.28 0.64 t2.7 1.77 t1.83 2.64 t0.67 3.25 z M363.94 12 q0 -1.1 -0.42 -2.07 t-1.15 -1.7 t-1.71 -1.16 t-2.08 -0.43 q-1.12 0 -2.1 0.43 t-1.71 1.16 t-1.15 1.7 t-0.42 2.07 q0 1.08 0.42 2.06 t1.15 1.71 t1.71 1.16 t2.1 0.43 q1.1 0 2.08 -0.43 t1.71 -1.16 t1.15 -1.71 t0.42 -2.06 z M397 20 l-3.04 0 l0 -10.68 l-5.04 8.5 l-4.84 -8.58 l0 10.76 l-3.04 0 l0 -16 l3.5 0 l4.44 7.94 l4.64 -7.94 l3.38 0 l0 16 z M427.72 20 l-3.4 0 l-1.48 -3.2 l-7.76 0 l-1.5 3.2 l-3.4 0 l7.56 -16 l2.42 0 z M421.62 14.219999999999999 l-2.66 -5.76 l-2.7 5.76 l5.36 0 z M449.28 6.779999999999999 l-4.42 0 l0 13.22 l-3.14 0 l0 -13.22 l-4.42 0 l0 -2.76 l11.98 0 l0 2.76 z M465.96 20 l-3.1 0 l0 -15.98 l3.1 0 l0 15.98 z M496.92 12 q0 1.72 -0.67 3.24 t-1.83 2.64 t-2.7 1.77 t-3.28 0.65 t-3.29 -0.65 t-2.71 -1.77 t-1.83 -2.63 t-0.67 -3.25 t0.67 -3.26 t1.83 -2.64 t2.71 -1.76 t3.29 -0.64 t3.28 0.64 t2.7 1.77 t1.83 2.64 t0.67 3.25 z M493.8 12 q0 -1.1 -0.42 -2.07 t-1.15 -1.7 t-1.71 -1.16 t-2.08 -0.43 q-1.12 0 -2.1 0.43 t-1.71 1.16 t-1.15 1.7 t-0.42 2.07 q0 1.08 0.42 2.06 t1.15 1.71 t1.71 1.16 t2.1 0.43 q1.1 0 2.08 -0.43 t1.71 -1.16 t1.15 -1.71 t0.42 -2.06 z M524.2 20 l-3.04 0 l-7.22 -11.22 l0 11.22 l-3.04 0 l0 -16 l3.48 0 l6.78 10.44 l0 -10.44 l3.04 0 l0 16 z"/></g>
			</g>
		</svg>
	